<svg height="511pt" viewBox="-53 0 511 511.99937" width="511pt" xmlns="http://www.w3.org/2000/svg"><path d="m331.511719 250.609375c-1.230469-9.824219 5.730469-18.789063 15.554687-20.023437l32.175782-4.039063c9.824218-1.234375 18.785156 5.730469 20.019531 15.554687 1.234375 9.820313-5.730469 18.785157-15.550781 20.019532l-32.179688 4.039062c-9.820312 1.234375-18.785156-5.726562-20.019531-15.550781zm0 0" fill="#c74b36"/><path d="m199.328125 438.433594c9.464844-2.90625 19.492187 2.410156 22.398437 11.875l9.519532 31c2.90625 9.464844-2.410156 19.492187-11.875 22.398437s-19.492188-2.410156-22.398438-11.875l-9.519531-31c-2.90625-9.464843 2.410156-19.492187 11.875-22.398437zm0 0" fill="#c74b36"/><path d="m264.375 15.980469s-133.769531-44.53125-168.945312 70.453125c-35.179688 114.984375-204.816407 316.890625 51.957031 379.015625 256.769531 62.125 274.519531-410.242188 116.988281-449.46875zm0 0" fill="#ffe0b7"/><path d="m160.921875 162.058594c-.304687-96.585938 67.730469-153.335938 67.730469-153.335938-42.222656-4.730468-109.726563.894532-133.226563 77.710938-30.738281 100.472656-164.136719 267.3125-26.007812 349.273437 78.664062-64.5 91.761719-192.203125 91.503906-273.648437zm0 0" fill="#fdcb89"/><g fill="#fc8978"><path d="m160.921875 352.550781c0 20.953125-16.984375 37.9375-37.9375 37.9375s-37.941406-16.984375-37.941406-37.9375 16.988281-37.941406 37.941406-37.941406 37.9375 16.988281 37.9375 37.941406zm0 0"/><path d="m236.113281 253.464844c0 13.65625-11.070312 24.726562-24.726562 24.726562s-24.726563-11.070312-24.726563-24.726562 11.070313-24.726563 24.726563-24.726563 24.726562 11.070313 24.726562 24.726563zm0 0"/><path d="m355.394531 309.601562c-10.027343-8.929687-23.242187-14.371093-37.726562-14.371093-31.335938 0-56.738281 25.40625-56.738281 56.742187 0 29.386719 22.34375 53.554688 50.964843 56.449219 20.417969-27.460937 34.820313-61.851563 43.5-98.820313zm0 0"/></g><path d="m89.222656 220.109375c-6.300781 7.636719-17.597656 8.71875-25.234375 2.417969l-35.992187-29.707032c-7.636719-6.300781-8.71875-17.601562-2.417969-25.234374 6.304687-7.636719 17.601563-8.71875 25.238281-2.417969l35.992188 29.707031c7.636718 6.300781 8.71875 17.601562 2.414062 25.234375zm0 0" fill="#c74b36"/><path d="m147.601562 118.304688c-11.28125-1.636719-21.484374 4.320312-22.789062 13.304687-1.300781 8.984375 6.785156 17.59375 18.066406 19.230469 11.28125 1.636718 21.484375-4.320313 22.789063-13.304688 1.300781-8.980468-6.785157-17.589844-18.066407-19.230468zm0 0" fill="#ff83b4"/><path d="m298.929688 140.273438c-11.28125-1.636719-21.484376 4.320312-22.789063 13.304687-1.300781 8.980469 6.785156 17.589844 18.066406 19.230469 11.28125 1.636718 21.484375-4.320313 22.789063-13.304688 1.300781-8.984375-6.785156-17.59375-18.066406-19.230468zm0 0" fill="#ff83b4"/><path d="m290.980469 145.339844 1.789062-12.320313c.59375-4.101562-2.246093-7.90625-6.347656-8.5-4.097656-.59375-7.902344 2.246094-8.496094 6.34375l-1.789062 12.324219c-.59375 4.097656 2.246093 7.902344 6.34375 8.5 4.101562.59375 7.90625-2.246094 8.5-6.347656zm0 0"/><path d="m160.148438 133.929688c4.101562.597656 7.902343-2.246094 8.5-6.34375l1.785156-12.324219c.597656-4.097657-2.242188-7.902344-6.34375-8.496094-4.097656-.597656-7.902344 2.246094-8.5 6.34375l-1.785156 12.320313c-.597657 4.101562 2.242187 7.90625 6.34375 8.5zm0 0"/><path d="m220.914062 145.550781c7.066407 1.027344 14.109376-1.550781 18.847657-6.894531 2.746093-3.097656 2.460937-7.839844-.636719-10.585938-1.136719-1.007812-6.382812-3.949218-10.589844.636719-2.015625 2.199219-4.480468 2.144531-5.464844 2-.984374-.140625-3.410156-.765625-4.671874-3.46875-1.753907-3.753906-6.21875-5.375-9.96875-3.621093-3.753907 1.753906-5.375 6.214843-3.621094 9.96875 3.019531 6.46875 9.042968 10.941406 16.105468 11.964843zm0 0"/><path d="m77.542969 352.550781c0 25.054688 20.386719 45.4375 45.441406 45.4375s45.4375-20.382812 45.4375-45.4375c0-25.054687-20.382813-45.441406-45.4375-45.441406s-45.441406 20.386719-45.441406 45.441406zm75.882812 0c0 16.78125-13.65625 30.4375-30.441406 30.4375s-30.4375-13.65625-30.4375-30.4375c0-16.785156 13.652344-30.441406 30.4375-30.441406s30.441406 13.65625 30.441406 30.441406zm0 0"/><path d="m179.160156 253.464844c0 17.769531 14.457032 32.226562 32.226563 32.226562s32.226562-14.457031 32.226562-32.226562c0-17.769532-14.457031-32.226563-32.226562-32.226563s-32.226563 14.457031-32.226563 32.226563zm32.226563-17.226563c9.496093 0 17.226562 7.730469 17.226562 17.226563 0 9.5-7.730469 17.226562-17.226562 17.226562-9.5 0-17.226563-7.726562-17.226563-17.226562 0-9.496094 7.726563-17.226563 17.226563-17.226563zm0 0"/><path d="m406.703125 241.164062c-1.746094-13.910156-14.484375-23.8125-28.394531-22.058593l-5.4375.683593c-.367188-99.191406-36.898438-193.488281-106.417969-211.019531-2.808594-.90625-23.785156-7.414062-50.9375-8.589843-38.457031-1.664063-70.875 8.339843-93.746094 28.945312-3.078125 2.773438-3.324219 7.515625-.550781 10.59375 2.773438 3.074219 7.515625 3.324219 10.59375.550781 20.089844-18.105469 47.890625-26.554687 82.667969-25.121093 26.566406 1.097656 47.328125 7.882812 47.527343 7.949218.183594.058594.367188.113282.554688.160156 37.730469 9.394532 67.378906 46.804688 83.484375 105.335938 14.015625 50.929688 15.53125 112.726562 4.445313 168.171875-9.867188-5.871094-21.179688-9.03125-32.824219-9.03125-35.421875 0-64.238281 28.816406-64.238281 64.238281 0 18.828125 8.21875 36.640625 22.550781 48.875 4.558593 3.890625 9.089843.902344 10.570312-.835937 2.691407-3.148438 2.316407-7.882813-.832031-10.574219-10.988281-9.378906-17.289062-23.035156-17.289062-37.464844 0-27.148437 22.089843-49.238281 49.238281-49.238281 10.609375 0 20.863281 3.414063 29.320312 9.691406-12.925781 51.867188-36.003906 93.054688-66.792969 119.15625-25.148437 21.316407-54.605468 32.019531-87.953124 32.019531-13.714844 0-28.09375-1.816406-43.09375-5.441406-65.144532-15.761718-105.449219-40.972656-123.21875-77.0625-13.3125-27.042968-21.136719-67.652344 20.328124-163.480468l12.957032 10.695312c17.214844 11.835938 30.773437 2.65625 35.792968-3.425781 0 0 16.777344-19.4375-3.425781-35.796875l-23.347656-19.269532.070313-.144531c13.832031-29.246093 26.898437-56.871093 34.296874-81.046875 3.003907-9.820312 6.898438-18.792968 11.578126-26.664062 2.113281-3.5625.941406-8.164063-2.617188-10.28125-3.5625-2.117188-8.164062-.941406-10.28125 2.617187-5.289062 8.902344-9.671875 18.972657-13.027344 29.9375-6.804687 22.253907-18.945312 48.214844-31.953125 75.734375 0 0-20.886719-15.628906-36.503906 2.835938-13.78125 16.292968-1.8125 31.472656 3.425781 35.796875l10.996094 9.078125c-26.003906 58.980468-48.316406 126.0625-21.746094 180.035156 19.855469 40.335938 63.40625 68.144531 133.148438 85.019531 13.507812 3.265625 26.65625 5.140625 39.378906 5.65625l4.800781 15.636719c3.355469 10.929688 13.445313 17.96875 24.320313 17.96875 20.78125 0 28.40625-19.488281 24.292968-32.894531l-2.09375-6.8125c19.480469-5.808594 37.238282-15.890625 53.574219-29.269531 67.722657-55.46875 78.226563-158.191407 79.890625-171.59375l14.855469-1.867188c13.914063-1.746094 23.808594-14.484375 22.0625-28.398438zm-375.339844-68.804687c4.800781-6.167969 12.792969-2.960937 14.679688-1.40625l35.992187 29.707031c2.148438 1.773438 6.707032 7.402344 1.40625 14.675782 0 0-6.144531 7.988281-14.679687 1.40625l-35.992188-29.707032c-2.148437-1.773437-6.203125-8.511718-1.40625-14.675781zm185.804688 324.179687c-5.496094 1.683594-11.339844-1.414062-13.023438-6.910156l-3.46875-11.289062c7.175781-.367188 14.195313-1.203125 21.046875-2.5l2.355469 7.667968c1.6875 5.496094-1.414063 11.34375-6.910156 13.03125zm165.605469-241.859374-11.382813 1.429687c.605469-7.050781 1.027344-14.113281 1.261719-21.175781l7.523437-.945313c5.703125-.714843 10.925781 3.34375 11.644531 9.046875.714844 5.703125-3.339843 10.925782-9.046874 11.644532zm0 0"/></svg>